<svg xmlns="http://www.w3.org/2000/svg" xmlns:xlink="http://www.w3.org/1999/xlink" viewBox="0 0 80 80" fill="#5B5B5B">
  <path d="M40 6C31.930187 6 25.21248 11.656534 23.482422 19.212891C18.594954 19.846429 14.693788 23.364425 13.488281 28.052734C6.0095083 28.328921 0 34.454863 0 42C0 49.72039 6.27961 56 14 56L19 56 A 1.0001 1.0001 0 1 0 19 54L14 54C7.36039 54 2 48.63961 2 42C2 35.36039 7.36039 30 14 30C13.97025 30 14.0317 30.009766 14.189453 30.009766L15.023438 30.009766L15.025391 29.998047 A 1 1 0 0 0 16 29 A 1 1 0 0 0 15.443359 28.105469C16.624127 24.198793 20.117796 21.306089 24.349609 21.033203L24.921875 20.998047 A 1 1 0 0 0 25 21 A 1 1 0 0 0 26 20 A 1 1 0 0 0 25.517578 19.144531C27.219484 12.73162 33.040588 8 40 8C46.433135 8 51.888211 12.047962 54.025391 17.724609L54.033203 17.746094 A 1 1 0 0 0 54 18 A 1 1 0 0 0 55 19 A 1 1 0 0 0 55.980469 18.199219C56.641881 18.082497 57.311956 18 58 18C64.63961 18 70 23.36039 70 30C70 31.051177 69.851543 32.070721 69.591797 33.056641L69.330078 34.046875L70.326172 34.283203C74.723841 35.332864 78 39.269546 78 44C78 49.534534 73.534534 54 68 54L65 54 A 1.0001 1.0001 0 1 0 65 56L68 56C74.615466 56 80 50.615466 80 44C80 38.672143 76.459385 34.258886 71.640625 32.699219C71.819165 31.820605 72 30.939119 72 30C72 22.27961 65.72039 16 58 16C57.131846 16 56.313684 16.153389 55.498047 16.306641C52.885208 10.277004 46.980544 6 40 6 z M 29 19 A 1 1 0 0 0 28 20 A 1 1 0 0 0 29 21 A 1 1 0 0 0 30 20 A 1 1 0 0 0 29 19 z M 33 21 A 1 1 0 0 0 32 22 A 1 1 0 0 0 33 23 A 1 1 0 0 0 34 22 A 1 1 0 0 0 33 21 z M 56 21 A 1 1 0 0 0 55 22 A 1 1 0 0 0 56 23 A 1 1 0 0 0 57 22 A 1 1 0 0 0 56 21 z M 36 24 A 1 1 0 0 0 35 25 A 1 1 0 0 0 36 26 A 1 1 0 0 0 37 25 A 1 1 0 0 0 36 24 z M 56 25 A 1 1 0 0 0 55 26 A 1 1 0 0 0 56 27 A 1 1 0 0 0 57 26 A 1 1 0 0 0 56 25 z M 19 28 A 1 1 0 0 0 18 29 A 1 1 0 0 0 19 30 A 1 1 0 0 0 20 29 A 1 1 0 0 0 19 28 z M 23 30 A 1 1 0 0 0 22 31 A 1 1 0 0 0 23 32 A 1 1 0 0 0 24 31 A 1 1 0 0 0 23 30 z M 26 33 A 1 1 0 0 0 25 34 A 1 1 0 0 0 26 35 A 1 1 0 0 0 27 34 A 1 1 0 0 0 26 33 z M 69 36 A 1 1 0 0 0 68 37 A 1 1 0 0 0 69 38 A 1 1 0 0 0 70 37 A 1 1 0 0 0 69 36 z M 40.140625 38L39.884766 38.613281L30.496094 61L40 61L40 74L41.943359 74L50.486328 53L42 53L42 38L40.140625 38 z M 67 39 A 1 1 0 0 0 66 40 A 1 1 0 0 0 67 41 A 1 1 0 0 0 68 40 A 1 1 0 0 0 67 39 z M 40 43.507812L40 55L47.513672 55L42 68.552734L42 59L33.503906 59L40 43.507812 z M 26.048828 52.988281 A 1.0001 1.0001 0 0 0 25.164062 53.650391L21.052734 64.650391 A 1.0001 1.0001 0 1 0 22.925781 65.349609L27.037109 54.349609 A 1.0001 1.0001 0 0 0 26.048828 52.988281 z M 58.947266 52.988281 A 1.0001 1.0001 0 0 0 58.0625 53.650391L53.953125 64.650391 A 1.0001 1.0001 0 1 0 55.826172 65.349609L59.9375 54.349609 A 1.0001 1.0001 0 0 0 58.947266 52.988281 z M 20.443359 67.988281 A 1.0001 1.0001 0 0 0 19.558594 68.650391L18.0625 72.650391 A 1.0005662 1.0005662 0 1 0 19.9375 73.349609L21.431641 69.349609 A 1.0001 1.0001 0 0 0 20.443359 67.988281 z M 53.341797 67.988281 A 1.0001 1.0001 0 0 0 52.457031 68.650391L50.962891 72.650391 A 1.0001 1.0001 0 1 0 52.835938 73.349609L54.330078 69.349609 A 1.0001 1.0001 0 0 0 53.341797 67.988281 z" fill="#5B5B5B" />
</svg>